<mxfile host="app.diagrams.net" agent="Mozilla/5.0 (Macintosh; Intel Mac OS X 10_15_7) AppleWebKit/537.36 (KHTML, like Gecko) Chrome/130.0.0.0 Safari/537.36" version="24.7.17">
  <diagram name="Page-1" id="DL4KJ3Rkb116l-oUBPc5">
    <mxGraphModel dx="777" dy="700" grid="1" gridSize="10" guides="1" tooltips="1" connect="1" arrows="1" fold="1" page="1" pageScale="1" pageWidth="850" pageHeight="1100" math="0" shadow="0">
      <root>
        <mxCell id="0" />
        <mxCell id="1" parent="0" />
        <mxCell id="aMwUFJ45-Yj3XpVn_LSK-26" style="edgeStyle=orthogonalEdgeStyle;rounded=0;orthogonalLoop=1;jettySize=auto;html=1;exitX=1;exitY=0.5;exitDx=0;exitDy=0;entryX=0;entryY=0.5;entryDx=0;entryDy=0;startArrow=ERoneToMany;startFill=0;endArrow=ERoneToMany;endFill=0;" edge="1" parent="1" source="aMwUFJ45-Yj3XpVn_LSK-2" target="aMwUFJ45-Yj3XpVn_LSK-22">
          <mxGeometry relative="1" as="geometry" />
        </mxCell>
        <mxCell id="aMwUFJ45-Yj3XpVn_LSK-2" value="" style="rounded=0;whiteSpace=wrap;html=1;" vertex="1" parent="1">
          <mxGeometry x="40" y="120" width="130" height="140" as="geometry" />
        </mxCell>
        <mxCell id="aMwUFJ45-Yj3XpVn_LSK-3" value="" style="endArrow=none;html=1;rounded=0;exitX=0;exitY=0.25;exitDx=0;exitDy=0;entryX=1;entryY=0.25;entryDx=0;entryDy=0;" edge="1" parent="1" source="aMwUFJ45-Yj3XpVn_LSK-2" target="aMwUFJ45-Yj3XpVn_LSK-2">
          <mxGeometry width="50" height="50" relative="1" as="geometry">
            <mxPoint x="400" y="390" as="sourcePoint" />
            <mxPoint x="450" y="340" as="targetPoint" />
          </mxGeometry>
        </mxCell>
        <mxCell id="aMwUFJ45-Yj3XpVn_LSK-4" value="CUSTOMER" style="text;html=1;align=center;verticalAlign=middle;whiteSpace=wrap;rounded=0;" vertex="1" parent="1">
          <mxGeometry x="75" y="130" width="60" height="30" as="geometry" />
        </mxCell>
        <mxCell id="aMwUFJ45-Yj3XpVn_LSK-5" value="&lt;div style=&quot;text-align: left;&quot;&gt;&lt;b style=&quot;background-color: initial;&quot;&gt;&lt;u&gt;Customer_id&lt;/u&gt;&lt;/b&gt;&lt;/div&gt;&lt;div style=&quot;text-align: left;&quot;&gt;Customer_name&lt;/div&gt;&lt;div style=&quot;text-align: left;&quot;&gt;Address&lt;/div&gt;&lt;div style=&quot;text-align: left;&quot;&gt;Mobile_number&lt;/div&gt;&lt;div style=&quot;text-align: left;&quot;&gt;Email&lt;/div&gt;" style="text;html=1;align=center;verticalAlign=middle;whiteSpace=wrap;rounded=0;" vertex="1" parent="1">
          <mxGeometry x="50" y="160" width="100" height="90" as="geometry" />
        </mxCell>
        <mxCell id="aMwUFJ45-Yj3XpVn_LSK-28" style="edgeStyle=orthogonalEdgeStyle;rounded=0;orthogonalLoop=1;jettySize=auto;html=1;exitX=0.5;exitY=0;exitDx=0;exitDy=0;entryX=0.5;entryY=1;entryDx=0;entryDy=0;startArrow=ERmandOne;startFill=0;endArrow=ERoneToMany;endFill=0;" edge="1" parent="1" source="aMwUFJ45-Yj3XpVn_LSK-10" target="aMwUFJ45-Yj3XpVn_LSK-2">
          <mxGeometry relative="1" as="geometry" />
        </mxCell>
        <mxCell id="aMwUFJ45-Yj3XpVn_LSK-30" style="edgeStyle=orthogonalEdgeStyle;rounded=0;orthogonalLoop=1;jettySize=auto;html=1;exitX=1;exitY=0.5;exitDx=0;exitDy=0;entryX=0;entryY=0.5;entryDx=0;entryDy=0;startArrow=ERmandOne;startFill=0;endArrow=ERmandOne;endFill=0;" edge="1" parent="1" source="aMwUFJ45-Yj3XpVn_LSK-10" target="aMwUFJ45-Yj3XpVn_LSK-14">
          <mxGeometry relative="1" as="geometry" />
        </mxCell>
        <mxCell id="aMwUFJ45-Yj3XpVn_LSK-10" value="" style="rounded=0;whiteSpace=wrap;html=1;" vertex="1" parent="1">
          <mxGeometry x="40" y="360" width="130" height="140" as="geometry" />
        </mxCell>
        <mxCell id="aMwUFJ45-Yj3XpVn_LSK-11" value="" style="endArrow=none;html=1;rounded=0;exitX=0;exitY=0.25;exitDx=0;exitDy=0;entryX=1;entryY=0.25;entryDx=0;entryDy=0;" edge="1" parent="1" source="aMwUFJ45-Yj3XpVn_LSK-10" target="aMwUFJ45-Yj3XpVn_LSK-10">
          <mxGeometry width="50" height="50" relative="1" as="geometry">
            <mxPoint x="400" y="630" as="sourcePoint" />
            <mxPoint x="450" y="580" as="targetPoint" />
          </mxGeometry>
        </mxCell>
        <mxCell id="aMwUFJ45-Yj3XpVn_LSK-12" value="SUBSCRIPTION" style="text;html=1;align=center;verticalAlign=middle;whiteSpace=wrap;rounded=0;" vertex="1" parent="1">
          <mxGeometry x="75" y="370" width="60" height="30" as="geometry" />
        </mxCell>
        <mxCell id="aMwUFJ45-Yj3XpVn_LSK-13" value="&lt;div style=&quot;text-align: left;&quot;&gt;&lt;b style=&quot;background-color: initial;&quot;&gt;&lt;u&gt;Subscription_id&lt;/u&gt;&lt;/b&gt;&lt;/div&gt;&lt;div style=&quot;text-align: left;&quot;&gt;Customer_id (FK)&lt;/div&gt;&lt;div style=&quot;text-align: left;&quot;&gt;Plan_id (FK)&lt;/div&gt;&lt;div style=&quot;text-align: left;&quot;&gt;Start_id&lt;/div&gt;&lt;div style=&quot;text-align: left;&quot;&gt;Eval_date&lt;/div&gt;&lt;div style=&quot;text-align: left;&quot;&gt;Validity&lt;/div&gt;" style="text;html=1;align=center;verticalAlign=middle;whiteSpace=wrap;rounded=0;" vertex="1" parent="1">
          <mxGeometry x="50" y="400" width="100" height="90" as="geometry" />
        </mxCell>
        <mxCell id="aMwUFJ45-Yj3XpVn_LSK-14" value="" style="rounded=0;whiteSpace=wrap;html=1;" vertex="1" parent="1">
          <mxGeometry x="400" y="360" width="130" height="140" as="geometry" />
        </mxCell>
        <mxCell id="aMwUFJ45-Yj3XpVn_LSK-15" value="" style="endArrow=none;html=1;rounded=0;exitX=0;exitY=0.25;exitDx=0;exitDy=0;entryX=1;entryY=0.25;entryDx=0;entryDy=0;" edge="1" parent="1" source="aMwUFJ45-Yj3XpVn_LSK-14" target="aMwUFJ45-Yj3XpVn_LSK-14">
          <mxGeometry width="50" height="50" relative="1" as="geometry">
            <mxPoint x="760" y="630" as="sourcePoint" />
            <mxPoint x="810" y="580" as="targetPoint" />
          </mxGeometry>
        </mxCell>
        <mxCell id="aMwUFJ45-Yj3XpVn_LSK-16" value="BILLING" style="text;html=1;align=center;verticalAlign=middle;whiteSpace=wrap;rounded=0;" vertex="1" parent="1">
          <mxGeometry x="435" y="370" width="60" height="30" as="geometry" />
        </mxCell>
        <mxCell id="aMwUFJ45-Yj3XpVn_LSK-17" value="&lt;div style=&quot;text-align: left;&quot;&gt;&lt;span style=&quot;background-color: initial;&quot;&gt;&lt;b&gt;&lt;u&gt;Billing_id&lt;/u&gt;&lt;/b&gt;&lt;/span&gt;&lt;/div&gt;&lt;div style=&quot;text-align: left;&quot;&gt;&lt;span style=&quot;background-color: initial;&quot;&gt;Subscription_id (FK)&lt;/span&gt;&lt;/div&gt;&lt;div style=&quot;text-align: left;&quot;&gt;Billing_date&lt;/div&gt;&lt;div style=&quot;text-align: left;&quot;&gt;Amount_date&lt;/div&gt;&lt;div style=&quot;text-align: left;&quot;&gt;Bill_status&lt;/div&gt;" style="text;html=1;align=center;verticalAlign=middle;whiteSpace=wrap;rounded=0;" vertex="1" parent="1">
          <mxGeometry x="410" y="400" width="120" height="90" as="geometry" />
        </mxCell>
        <mxCell id="aMwUFJ45-Yj3XpVn_LSK-29" style="edgeStyle=orthogonalEdgeStyle;rounded=0;orthogonalLoop=1;jettySize=auto;html=1;exitX=0.25;exitY=1;exitDx=0;exitDy=0;entryX=0.75;entryY=0;entryDx=0;entryDy=0;startArrow=ERmandOne;startFill=0;endArrow=ERoneToMany;endFill=0;" edge="1" parent="1" source="aMwUFJ45-Yj3XpVn_LSK-22" target="aMwUFJ45-Yj3XpVn_LSK-10">
          <mxGeometry relative="1" as="geometry" />
        </mxCell>
        <mxCell id="aMwUFJ45-Yj3XpVn_LSK-22" value="" style="rounded=0;whiteSpace=wrap;html=1;" vertex="1" parent="1">
          <mxGeometry x="400" y="120" width="130" height="140" as="geometry" />
        </mxCell>
        <mxCell id="aMwUFJ45-Yj3XpVn_LSK-23" value="" style="endArrow=none;html=1;rounded=0;exitX=0;exitY=0.25;exitDx=0;exitDy=0;entryX=1;entryY=0.25;entryDx=0;entryDy=0;" edge="1" parent="1" source="aMwUFJ45-Yj3XpVn_LSK-22" target="aMwUFJ45-Yj3XpVn_LSK-22">
          <mxGeometry width="50" height="50" relative="1" as="geometry">
            <mxPoint x="760" y="390" as="sourcePoint" />
            <mxPoint x="810" y="340" as="targetPoint" />
          </mxGeometry>
        </mxCell>
        <mxCell id="aMwUFJ45-Yj3XpVn_LSK-24" value="PLAN" style="text;html=1;align=center;verticalAlign=middle;whiteSpace=wrap;rounded=0;" vertex="1" parent="1">
          <mxGeometry x="435" y="130" width="60" height="30" as="geometry" />
        </mxCell>
        <mxCell id="aMwUFJ45-Yj3XpVn_LSK-25" value="&lt;div style=&quot;&quot;&gt;&lt;span style=&quot;background-color: initial;&quot;&gt;&lt;b&gt;&lt;u&gt;Plan_id&lt;/u&gt;&lt;/b&gt;&lt;/span&gt;&lt;/div&gt;&lt;div style=&quot;&quot;&gt;Plan_name&lt;/div&gt;&lt;div style=&quot;&quot;&gt;Speed&lt;/div&gt;&lt;div style=&quot;&quot;&gt;Data_limit&lt;/div&gt;&lt;div style=&quot;&quot;&gt;Validity&lt;/div&gt;&lt;div style=&quot;&quot;&gt;Price&lt;/div&gt;" style="text;html=1;align=left;verticalAlign=middle;whiteSpace=wrap;rounded=0;" vertex="1" parent="1">
          <mxGeometry x="410" y="160" width="120" height="90" as="geometry" />
        </mxCell>
      </root>
    </mxGraphModel>
  </diagram>
</mxfile>
